<svg width="63" height="63" viewBox="0 0 63 63" fill="none" xmlns="http://www.w3.org/2000/svg">
<path fill-rule="evenodd" clip-rule="evenodd" d="M25.9543 0.287651C12.6024 3.12328 2.85233 12.8109 0.413115 25.6642C-0.0731049 28.2249 -0.146116 34.2292 0.279529 36.6172C2.40613 48.5452 11.0372 58.3275 22.4474 61.7416C28.3756 63.5151 35.7284 63.407 41.5036 61.4615C51.1898 58.1983 58.951 50.1344 61.7723 40.4022C62.7407 37.0619 62.9978 35.1781 63 31.4052C63.0095 16.4653 52.9443 3.981 38.1944 0.636363C35.7611 0.0843746 34.6186 -0.0194298 31.2275 0.00273625C28.9965 0.0173334 26.6236 0.145464 25.9543 0.287651ZM45.5464 20.3401C43.0196 21.4862 42.2156 24.9082 43.9804 27.0047C45.9317 29.323 49.0792 29.1605 50.9435 26.6455C51.3661 26.0754 51.5092 25.482 51.5092 24.2999C51.5092 22.6034 51.0654 21.7257 49.6874 20.6971C48.7923 20.0292 46.6411 19.8438 45.5464 20.3401ZM15.8134 25.7629C13.5708 26.7593 12.5305 29.7679 13.7493 31.7337C14.0257 32.1797 17.1663 35.4827 20.7286 39.0739C27.6906 46.0924 28.2361 46.487 30.4062 46.0802C31.7881 45.821 33.3922 44.301 33.7435 42.9178C33.8987 42.3069 33.9842 41.6692 33.9336 41.5008C33.883 41.3326 33.7622 40.8298 33.6651 40.3838C33.4474 39.3836 20.6048 26.3349 19.27 25.7575C18.1877 25.2896 16.874 25.2915 15.8134 25.7629ZM36.8929 29.0054C34.1646 30.1931 33.5201 33.8186 35.6576 35.9555C38.6958 38.9925 43.6745 36.2723 42.8751 32.0118C42.6696 30.9173 41.628 29.5841 40.5384 29.0208C39.596 28.5336 37.9919 28.5269 36.8929 29.0054Z" fill="#15B86C"/>
</svg>
